<svg xmlns="http://www.w3.org/2000/svg" viewBox="0 0 1000 660" width="1000" height="660" role="img" aria-label="comit dashboard preview">
  <defs>
    <linearGradient id="d-head" x1="0" y1="0" x2="1" y2="0">
      <stop offset="0" stop-color="#075E54"/><stop offset="1" stop-color="#128C7E"/>
    </linearGradient>
    <linearGradient id="d-bar" x1="0" y1="0" x2="0" y2="1">
      <stop offset="0" stop-color="#25D366"/><stop offset="1" stop-color="#25D366" stop-opacity="0.45"/>
    </linearGradient>
  </defs>
  <rect width="1000" height="660" rx="14" fill="#EFEAE2"/>

  <!-- header bar -->
  <path d="M0 14 Q0 0 14 0 H986 Q1000 0 1000 14 V74 H0 Z" fill="url(#d-head)"/>
  <text x="28" y="48" font-family="system-ui, Arial" font-size="30" font-weight="800" fill="#ffffff">comit</text>
  <text x="128" y="48" font-family="system-ui, Arial" font-size="15" fill="#E9F3F1">commit to the people who matter</text>
  <text x="760" y="44" font-family="system-ui, Arial" font-size="13" fill="#CFE6E1">6 chats · 321 msgs · 2026-06-19</text>

  <!-- stat cards -->
  <g font-family="system-ui, Arial">
    <g transform="translate(28,92)">
      <rect width="223" height="92" rx="12" fill="#FFFFFF" stroke="#E7E1D8"/>
      <text x="20" y="50" font-size="30" font-weight="800" fill="#008069">6</text>
      <text x="20" y="74" font-size="13" fill="#667781">conversations tracked</text>
    </g>
    <g transform="translate(263,92)">
      <rect width="223" height="92" rx="12" fill="#FFFFFF" stroke="#E7E1D8"/>
      <text x="20" y="50" font-size="30" font-weight="800" fill="#F4A300">2</text>
      <text x="20" y="74" font-size="13" fill="#667781">replies you owe</text>
    </g>
    <g transform="translate(498,92)">
      <rect width="223" height="92" rx="12" fill="#FFFFFF" stroke="#E7E1D8"/>
      <text x="20" y="50" font-size="30" font-weight="800" fill="#EA4335">66</text>
      <text x="20" y="74" font-size="13" fill="#667781">after-hours work pings</text>
    </g>
    <g transform="translate(733,92)">
      <rect width="239" height="92" rx="12" fill="#FFFFFF" stroke="#E7E1D8"/>
      <text x="20" y="50" font-size="30" font-weight="800" fill="#008069">83.7</text>
      <text x="20" y="74" font-size="13" fill="#667781">top bond · Riya</text>
    </g>
  </g>

  <!-- nudges panel (chat bubbles) -->
  <g transform="translate(28,204)" font-family="system-ui, Arial">
    <rect width="458" height="424" rx="12" fill="#F7F4EF" stroke="#E7E1D8"/>
    <text x="22" y="36" font-size="12" letter-spacing="1" font-weight="700" fill="#008069">NUDGES · WHAT TO DO</text>
    <g transform="translate(22,54)">
      <g transform="translate(0,0)"><rect width="414" height="56" rx="10" fill="#FFFFFF"/><rect width="6" height="10" fill="#FFFFFF"/><circle cx="27" cy="28" r="15" fill="#EA4335"/><text x="27" y="33" text-anchor="middle" font-size="15" fill="#fff">!</text><text x="52" y="24" font-size="13" fill="#111B21"><tspan font-weight="700">Vinay</tspan> (work) reached you after hours</text><text x="52" y="42" font-size="13" fill="#111B21">44× recently. Consider muting.</text></g>
      <g transform="translate(0,66)"><rect width="414" height="56" rx="10" fill="#FFFFFF"/><circle cx="27" cy="28" r="15" fill="#F4A300"/><text x="27" y="33" text-anchor="middle" font-size="14" fill="#fff">↩</text><text x="52" y="24" font-size="13" fill="#111B21">You owe <tspan font-weight="700">Amma</tspan> a reply —</text><text x="52" y="42" font-size="13" fill="#111B21">waiting 3 days. “your cousin is asking…”</text></g>
      <g transform="translate(0,132)"><rect width="414" height="56" rx="10" fill="#FFFFFF"/><circle cx="27" cy="28" r="15" fill="#34B7F1"/><text x="27" y="33" text-anchor="middle" font-size="15" fill="#fff">≀</text><text x="52" y="24" font-size="13" fill="#111B21"><tspan font-weight="700">Amma</tspan> is cooling off:</text><text x="52" y="42" font-size="13" fill="#111B21">~10.9/wk → ~2.0/wk. Reach out?</text></g>
      <g transform="translate(0,198)"><rect width="414" height="56" rx="10" fill="#FFFFFF"/><circle cx="27" cy="28" r="15" fill="#EA4335"/><text x="27" y="33" text-anchor="middle" font-size="15" fill="#fff">!</text><text x="52" y="24" font-size="13" fill="#111B21">Work chatter with <tspan font-weight="700">Vinay</tspan> is</text><text x="52" y="42" font-size="13" fill="#111B21">climbing. Protect your off-hours.</text></g>
      <g transform="translate(0,264)"><rect width="414" height="56" rx="10" fill="#FFFFFF"/><circle cx="27" cy="28" r="15" fill="#008069"/><text x="27" y="33" text-anchor="middle" font-size="14" fill="#fff">⏱</text><text x="52" y="24" font-size="13" fill="#111B21">Your replies to <tspan font-weight="700">Karan</tspan> take</text><text x="52" y="42" font-size="13" fill="#111B21">~15h on average. Tighten that up.</text></g>
    </g>
  </g>

  <!-- contacts -->
  <g transform="translate(498,204)" font-family="system-ui, Arial">
    <rect width="474" height="206" rx="12" fill="#FFFFFF" stroke="#E7E1D8"/>
    <text x="22" y="36" font-size="12" letter-spacing="1" font-weight="700" fill="#008069">RELATIONSHIPS · INTERACTION SCORE</text>
    <g transform="translate(22,54)">
      <g><circle cx="34" cy="34" r="26" fill="none" stroke="#E7E1D8" stroke-width="6"/><circle cx="34" cy="34" r="26" fill="none" stroke="#25D366" stroke-width="6" stroke-linecap="round" stroke-dasharray="137 163" transform="rotate(-90 34 34)"/><text x="34" y="40" text-anchor="middle" font-size="15" font-weight="800" fill="#111B21">84</text><text x="72" y="30" font-size="14" font-weight="700" fill="#111B21">Riya</text><text x="72" y="47" font-size="11" fill="#667781">thriving · personal</text></g>
      <g transform="translate(215,0)"><circle cx="34" cy="34" r="26" fill="none" stroke="#E7E1D8" stroke-width="6"/><circle cx="34" cy="34" r="26" fill="none" stroke="#25D366" stroke-width="6" stroke-linecap="round" stroke-dasharray="129 163" transform="rotate(-90 34 34)"/><text x="34" y="40" text-anchor="middle" font-size="15" font-weight="800" fill="#111B21">79</text><text x="72" y="30" font-size="14" font-weight="700" fill="#111B21">Vinay</text><text x="72" y="47" font-size="11" fill="#667781">thriving · work</text></g>
      <g transform="translate(0,84)"><circle cx="34" cy="34" r="26" fill="none" stroke="#E7E1D8" stroke-width="6"/><circle cx="34" cy="34" r="26" fill="none" stroke="#128C7E" stroke-width="6" stroke-linecap="round" stroke-dasharray="114 163" transform="rotate(-90 34 34)"/><text x="34" y="40" text-anchor="middle" font-size="15" font-weight="800" fill="#111B21">70</text><text x="72" y="30" font-size="14" font-weight="700" fill="#111B21">Amma</text><text x="72" y="47" font-size="11" fill="#667781">steady · owe 3 days</text></g>
      <g transform="translate(215,84)"><circle cx="34" cy="34" r="26" fill="none" stroke="#E7E1D8" stroke-width="6"/><circle cx="34" cy="34" r="26" fill="none" stroke="#128C7E" stroke-width="6" stroke-linecap="round" stroke-dasharray="79 163" transform="rotate(-90 34 34)"/><text x="34" y="40" text-anchor="middle" font-size="15" font-weight="800" fill="#111B21">48</text><text x="72" y="30" font-size="14" font-weight="700" fill="#111B21">DARPAN Crew</text><text x="72" y="47" font-size="11" fill="#667781">steady · group</text></g>
    </g>
  </g>

  <!-- balance -->
  <g transform="translate(498,424)" font-family="system-ui, Arial">
    <rect width="474" height="204" rx="12" fill="#FFFFFF" stroke="#E7E1D8"/>
    <text x="22" y="36" font-size="12" letter-spacing="1" font-weight="700" fill="#008069">WORK-LIFE BALANCE</text>
    <g transform="translate(90,120)">
      <circle r="48" fill="none" stroke="#25D366" stroke-width="15"/>
      <circle r="48" fill="none" stroke="#34B7F1" stroke-width="15" stroke-dasharray="106 302" transform="rotate(-90)"/>
      <text x="0" y="-2" text-anchor="middle" font-size="22" font-weight="800" fill="#111B21">35%</text>
      <text x="0" y="16" text-anchor="middle" font-size="11" fill="#667781">work</text>
    </g>
    <g transform="translate(200,72)">
      <rect x="0"   y="20" width="28" height="70" rx="5" fill="url(#d-bar)"/>
      <rect x="38"  y="14" width="28" height="76" rx="5" fill="url(#d-bar)"/>
      <rect x="76"  y="40" width="28" height="50" rx="5" fill="url(#d-bar)"/>
      <rect x="114" y="18" width="28" height="72" rx="5" fill="url(#d-bar)"/>
      <rect x="152" y="24" width="28" height="66" rx="5" fill="url(#d-bar)"/>
      <rect x="190" y="14" width="28" height="76" rx="5" fill="url(#d-bar)"/>
      <rect x="228" y="52" width="28" height="38" rx="5" fill="url(#d-bar)"/>
      <text x="128" y="118" text-anchor="middle" font-size="12" fill="#667781"><tspan font-weight="800" fill="#EA4335">66</tspan> after-hours work pings · busiest 11 PM</text>
    </g>
  </g>
</svg>
